<svg xmlns="http://www.w3.org/2000/svg" version="1.1" xmlns:xlink="http://www.w3.org/1999/xlink" xmlns:svgjs="http://svgjs.com/svgjs" width="1440" height="560" preserveAspectRatio="none" viewBox="0 0 1440 560"><g mask="url(&quot;#SvgjsMask1000&quot;)" fill="none"><rect width="1440" height="560" x="0" y="0" fill="#0e2a47"></rect><path d="M 0,4 C 144,88.2 432,376.2 720,425 C 1008,473.8 1296,283.4 1440,248L1440 560L0 560z" fill="rgba(24, 74, 126, 1)"></path><path d="M 0,504 C 96,431.6 288,141.2 480,142 C 672,142.8 768,521.6 960,508 C 1152,494.4 1344,160.8 1440,74L1440 560L0 560z" fill="#184a7e"></path><path d="M 0,476 C 72,432.2 216,260.2 360,257 C 504,253.8 576,476.4 720,460 C 864,443.6 936,156.4 1080,175 C 1224,193.6 1368,477.4 1440,553L1440 560L0 560z" fill="#2264ab"></path></g><defs><mask id="SvgjsMask1000"><rect width="1440" height="560" fill="#ffffff"></rect></mask></defs></svg>
