<svg xmlns="http://www.w3.org/2000/svg" version="1.1" xmlns:xlink="http://www.w3.org/1999/xlink" xmlns:svgjs="http://svgjs.com/svgjs" width="1440" height="560" preserveAspectRatio="none" viewBox="0 0 1440 560"><g mask="url(&quot;#SvgjsMask1016&quot;)" fill="none"><rect width="1440" height="560" x="0" y="0" fill="rgba(129, 198, 235, 1)"></rect><path d="M 0,228 C 96,280 288,487.2 480,488 C 672,488.8 768,219 960,232 C 1152,245 1344,488.8 1440,553L1440 560L0 560z" fill="rgba(212, 241, 247, 1)"></path><path d="M 0,342 C 96,316.4 288,180.4 480,214 C 672,247.6 768,529.4 960,510 C 1152,490.6 1344,195.6 1440,117L1440 560L0 560z" fill="rgba(212, 241, 247, 1)"></path><path d="M 0,180 C 72,211.6 216,332.6 360,338 C 504,343.4 576,211.2 720,207 C 864,202.8 936,356.4 1080,317 C 1224,277.6 1368,71.4 1440,10L1440 560L0 560z" fill="rgba(171, 220, 241, 1)"></path></g><defs><mask id="SvgjsMask1016"><rect width="1440" height="560" fill="#ffffff"></rect></mask></defs></svg>